<?xml version="1.0" encoding="utf-8" standalone="no"?>
<!DOCTYPE svg PUBLIC "-//W3C//DTD SVG 1.1//EN"
  "http://www.w3.org/Graphics/SVG/1.1/DTD/svg11.dtd">
<svg xmlns:xlink="http://www.w3.org/1999/xlink" width="360pt" height="288pt" viewBox="0 0 360 288" xmlns="http://www.w3.org/2000/svg" version="1.1">
 <metadata>
  <rdf:RDF xmlns:dc="http://purl.org/dc/elements/1.1/" xmlns:cc="http://creativecommons.org/ns#" xmlns:rdf="http://www.w3.org/1999/02/22-rdf-syntax-ns#">
   <cc:Work>
    <dc:type rdf:resource="http://purl.org/dc/dcmitype/StillImage"/>
    <dc:date>2025-01-07T14:20:56.875575</dc:date>
    <dc:format>image/svg+xml</dc:format>
    <dc:creator>
     <cc:Agent>
      <dc:title>Matplotlib v3.6.3, https://matplotlib.org/</dc:title>
     </cc:Agent>
    </dc:creator>
   </cc:Work>
  </rdf:RDF>
 </metadata>
 <defs>
  <style type="text/css">*{stroke-linejoin: round; stroke-linecap: butt}</style>
 </defs>
 <g id="figure_1">
  <g id="patch_1">
   <path d="M 0 288
L 360 288
L 360 0
L 0 0
z
" style="fill: #ffffff"/>
  </g>
  <g id="axes_1">
   <g id="patch_2">
    <path d="M 45 256.32
L 324 256.32
L 324 34.56
L 45 34.56
z
" style="fill: #ffffff"/>
   </g>
   <g id="matplotlib.axis_1">
    <g id="xtick_1">
     <g id="line2d_1">
      <defs>
       <path id="m08c7979a5d" d="M 0 0
L 0 3.5
" style="stroke: #000000; stroke-width: 0.8"/>
      </defs>
      <g>
       <use xlink:href="#m08c7979a5d" x="56.407773" y="256.32" style="stroke: #000000; stroke-width: 0.8"/>
      </g>
     </g>
     <g id="text_1">
      <!-- 0 -->
      <g transform="translate(53.407773 270.62) scale(0.1 -0.1)">
       <defs>
        <path id="NVIDIASans-Regular-30" d="M 1882 -77
Q 1101 -77 672 448
Q 243 973 243 1920
L 243 2483
Q 243 3437 672 3958
Q 1101 4480 1882 4480
L 1958 4480
Q 2739 4480 3164 3958
Q 3590 3437 3590 2483
L 3590 1920
Q 3590 973 3164 448
Q 2739 -77 1958 -77
L 1882 -77
z
M 1882 390
L 1958 390
Q 2496 390 2781 787
Q 3066 1184 3066 1933
L 3066 2477
Q 3066 3219 2781 3619
Q 2496 4019 1958 4019
L 1882 4019
Q 1344 4019 1059 3619
Q 774 3219 774 2477
L 774 1933
Q 774 1184 1059 787
Q 1344 390 1882 390
z
" transform="scale(0.015625)"/>
       </defs>
       <use xlink:href="#NVIDIASans-Regular-30"/>
      </g>
     </g>
    </g>
    <g id="xtick_2">
     <g id="line2d_2">
      <g>
       <use xlink:href="#m08c7979a5d" x="107.389957" y="256.32" style="stroke: #000000; stroke-width: 0.8"/>
      </g>
     </g>
     <g id="text_2">
      <!-- 100,000 -->
      <g transform="translate(88.26027 270.62) scale(0.1 -0.1)">
       <defs>
        <path id="NVIDIASans-Regular-31" d="M 1850 0
L 1850 3955
L 1139 3955
L 1203 4403
L 2374 4403
L 2374 0
L 1850 0
z
" transform="scale(0.015625)"/>
        <path id="NVIDIASans-Regular-2c" d="M 506 -902
L 314 -653
L 493 -512
Q 614 -422 659 -352
Q 704 -282 704 -115
L 704 0
L 422 0
L 422 646
L 1024 646
L 1024 -115
Q 1024 -294 989 -406
Q 954 -518 874 -601
Q 794 -685 653 -794
L 506 -902
z
" transform="scale(0.015625)"/>
       </defs>
       <use xlink:href="#NVIDIASans-Regular-31"/>
       <use xlink:href="#NVIDIASans-Regular-30" x="59.999985"/>
       <use xlink:href="#NVIDIASans-Regular-30" x="119.999969"/>
       <use xlink:href="#NVIDIASans-Regular-2c" x="179.999954"/>
       <use xlink:href="#NVIDIASans-Regular-30" x="202.599945"/>
       <use xlink:href="#NVIDIASans-Regular-30" x="262.59993"/>
       <use xlink:href="#NVIDIASans-Regular-30" x="322.599915"/>
      </g>
     </g>
    </g>
    <g id="xtick_3">
     <g id="line2d_3">
      <g>
       <use xlink:href="#m08c7979a5d" x="158.372141" y="256.32" style="stroke: #000000; stroke-width: 0.8"/>
      </g>
     </g>
     <g id="text_3">
      <!-- 200,000 -->
      <g transform="translate(139.242453 270.62) scale(0.1 -0.1)">
       <defs>
        <path id="NVIDIASans-Regular-32" d="M 454 0
L 454 538
Q 454 1491 1306 1933
L 2163 2381
Q 2810 2714 2810 3245
L 2810 3334
Q 2810 3648 2573 3840
Q 2336 4032 1952 4032
L 1901 4032
Q 1510 4032 1273 3885
Q 1037 3738 909 3418
L 467 3610
Q 800 4480 1901 4480
L 1971 4480
Q 2381 4480 2685 4339
Q 2989 4198 3158 3945
Q 3328 3693 3328 3347
L 3328 3238
Q 3328 2816 3113 2521
Q 2899 2227 2387 1965
L 1555 1536
Q 1261 1389 1126 1133
Q 992 877 992 493
L 992 461
L 3354 461
L 3354 0
L 454 0
z
" transform="scale(0.015625)"/>
       </defs>
       <use xlink:href="#NVIDIASans-Regular-32"/>
       <use xlink:href="#NVIDIASans-Regular-30" x="59.999985"/>
       <use xlink:href="#NVIDIASans-Regular-30" x="119.999969"/>
       <use xlink:href="#NVIDIASans-Regular-2c" x="179.999954"/>
       <use xlink:href="#NVIDIASans-Regular-30" x="202.599945"/>
       <use xlink:href="#NVIDIASans-Regular-30" x="262.59993"/>
       <use xlink:href="#NVIDIASans-Regular-30" x="322.599915"/>
      </g>
     </g>
    </g>
    <g id="xtick_4">
     <g id="line2d_4">
      <g>
       <use xlink:href="#m08c7979a5d" x="209.354324" y="256.32" style="stroke: #000000; stroke-width: 0.8"/>
      </g>
     </g>
     <g id="text_4">
      <!-- 300,000 -->
      <g transform="translate(190.224637 270.62) scale(0.1 -0.1)">
       <defs>
        <path id="NVIDIASans-Regular-33" d="M 1805 -77
Q 627 -77 320 646
L 749 851
Q 864 608 1113 489
Q 1363 371 1792 371
L 1850 371
Q 2317 371 2592 588
Q 2867 806 2867 1171
L 2867 1280
Q 2867 1645 2611 1862
Q 2355 2080 1920 2080
L 1242 2080
L 1242 2522
L 1914 2522
Q 2310 2522 2534 2710
Q 2758 2899 2758 3226
L 2758 3315
Q 2758 3648 2508 3840
Q 2259 4032 1837 4032
L 1786 4032
Q 1005 4032 800 3514
L 371 3712
Q 525 4083 896 4281
Q 1267 4480 1805 4480
L 1875 4480
Q 2298 4480 2611 4336
Q 2925 4192 3097 3933
Q 3270 3674 3270 3322
L 3270 3219
Q 3270 2931 3116 2691
Q 2963 2451 2694 2323
Q 3008 2189 3197 1917
Q 3386 1645 3386 1293
L 3386 1171
Q 3386 595 2979 259
Q 2573 -77 1875 -77
L 1805 -77
z
" transform="scale(0.015625)"/>
       </defs>
       <use xlink:href="#NVIDIASans-Regular-33"/>
       <use xlink:href="#NVIDIASans-Regular-30" x="59.999985"/>
       <use xlink:href="#NVIDIASans-Regular-30" x="119.999969"/>
       <use xlink:href="#NVIDIASans-Regular-2c" x="179.999954"/>
       <use xlink:href="#NVIDIASans-Regular-30" x="202.599945"/>
       <use xlink:href="#NVIDIASans-Regular-30" x="262.59993"/>
       <use xlink:href="#NVIDIASans-Regular-30" x="322.599915"/>
      </g>
     </g>
    </g>
    <g id="xtick_5">
     <g id="line2d_5">
      <g>
       <use xlink:href="#m08c7979a5d" x="260.336508" y="256.32" style="stroke: #000000; stroke-width: 0.8"/>
      </g>
     </g>
     <g id="text_5">
      <!-- 400,000 -->
      <g transform="translate(241.20682 270.62) scale(0.1 -0.1)">
       <defs>
        <path id="NVIDIASans-Regular-34" d="M 2528 0
L 2528 1005
L 256 1005
L 256 1382
L 2522 4403
L 3021 4403
L 3021 1440
L 3622 1440
L 3565 1005
L 3021 1005
L 3021 0
L 2528 0
z
M 2528 1440
L 2528 3725
L 813 1440
L 2528 1440
z
" transform="scale(0.015625)"/>
       </defs>
       <use xlink:href="#NVIDIASans-Regular-34"/>
       <use xlink:href="#NVIDIASans-Regular-30" x="59.999985"/>
       <use xlink:href="#NVIDIASans-Regular-30" x="119.999969"/>
       <use xlink:href="#NVIDIASans-Regular-2c" x="179.999954"/>
       <use xlink:href="#NVIDIASans-Regular-30" x="202.599945"/>
       <use xlink:href="#NVIDIASans-Regular-30" x="262.59993"/>
       <use xlink:href="#NVIDIASans-Regular-30" x="322.599915"/>
      </g>
     </g>
    </g>
    <g id="xtick_6">
     <g id="line2d_6">
      <g>
       <use xlink:href="#m08c7979a5d" x="311.318692" y="256.32" style="stroke: #000000; stroke-width: 0.8"/>
      </g>
     </g>
     <g id="text_6">
      <!-- 500,000 -->
      <g transform="translate(292.189004 270.62) scale(0.1 -0.1)">
       <defs>
        <path id="NVIDIASans-Regular-35" d="M 1837 -77
Q 1293 -77 909 124
Q 525 326 378 698
L 806 902
Q 1030 371 1824 371
L 1882 371
Q 2355 371 2633 611
Q 2912 851 2912 1248
L 2912 1363
Q 2912 1779 2617 2025
Q 2323 2272 1811 2272
L 1760 2272
Q 1242 2272 832 2010
L 531 2157
L 634 4403
L 3187 4403
L 3187 3942
L 1069 3942
L 1018 2522
Q 1395 2714 1882 2714
L 1946 2714
Q 2394 2714 2726 2547
Q 3059 2381 3244 2080
Q 3430 1779 3430 1376
L 3430 1248
Q 3430 640 3020 281
Q 2611 -77 1914 -77
L 1837 -77
z
" transform="scale(0.015625)"/>
       </defs>
       <use xlink:href="#NVIDIASans-Regular-35"/>
       <use xlink:href="#NVIDIASans-Regular-30" x="59.999985"/>
       <use xlink:href="#NVIDIASans-Regular-30" x="119.999969"/>
       <use xlink:href="#NVIDIASans-Regular-2c" x="179.999954"/>
       <use xlink:href="#NVIDIASans-Regular-30" x="202.599945"/>
       <use xlink:href="#NVIDIASans-Regular-30" x="262.59993"/>
       <use xlink:href="#NVIDIASans-Regular-30" x="322.599915"/>
      </g>
     </g>
    </g>
    <g id="text_7">
     <!-- Number of Updates -->
     <g transform="translate(138.45625 283.97) scale(0.1 -0.1)">
      <defs>
       <path id="NVIDIASans-Regular-4e" d="M 608 0
L 608 4480
L 1069 4480
L 3597 902
L 3597 4480
L 4102 4480
L 4102 0
L 3642 0
L 1120 3571
L 1120 0
L 608 0
z
" transform="scale(0.015625)"/>
       <path id="NVIDIASans-Regular-75" d="M 1658 -77
Q 1120 -77 793 262
Q 467 602 467 1254
L 467 3258
L 979 3258
L 979 1331
Q 979 858 1180 611
Q 1382 365 1760 365
L 1811 365
Q 2061 365 2269 489
Q 2477 614 2601 860
Q 2726 1107 2726 1478
L 2726 3258
L 3238 3258
L 3238 0
L 2771 0
L 2771 576
Q 2637 282 2374 102
Q 2112 -77 1715 -77
L 1658 -77
z
" transform="scale(0.015625)"/>
       <path id="NVIDIASans-Regular-6d" d="M 512 0
L 512 3258
L 979 3258
L 979 2675
Q 1114 2976 1366 3155
Q 1619 3334 1971 3334
L 2029 3334
Q 2829 3334 3078 2643
Q 3219 2957 3491 3145
Q 3763 3334 4128 3334
L 4186 3334
Q 4723 3334 5030 2995
Q 5338 2656 5338 2003
L 5338 0
L 4826 0
L 4826 1920
Q 4826 2400 4646 2646
Q 4467 2893 4083 2893
L 4038 2893
Q 3821 2893 3622 2768
Q 3424 2643 3302 2396
Q 3181 2150 3181 1779
L 3181 0
L 2669 0
L 2669 1920
Q 2669 2400 2489 2646
Q 2310 2893 1926 2893
L 1882 2893
Q 1664 2893 1469 2768
Q 1274 2643 1149 2396
Q 1024 2150 1024 1779
L 1024 0
L 512 0
z
" transform="scale(0.015625)"/>
       <path id="NVIDIASans-Regular-62" d="M 2080 -77
Q 1683 -77 1404 96
Q 1126 269 979 563
L 979 0
L 512 0
L 512 4672
L 1024 4672
L 1024 2758
Q 1171 3021 1443 3177
Q 1715 3334 2080 3334
L 2125 3334
Q 2534 3334 2848 3152
Q 3162 2970 3344 2614
Q 3526 2259 3526 1747
L 3526 1510
Q 3526 998 3344 643
Q 3162 288 2848 105
Q 2534 -77 2125 -77
L 2080 -77
z
M 1984 365
L 2042 365
Q 2458 365 2736 646
Q 3014 928 3014 1517
L 3014 1747
Q 3014 2336 2736 2614
Q 2458 2893 2042 2893
L 1984 2893
Q 1722 2893 1501 2771
Q 1280 2650 1152 2394
Q 1024 2138 1024 1728
L 1024 1530
Q 1024 922 1305 643
Q 1587 365 1984 365
z
" transform="scale(0.015625)"/>
       <path id="NVIDIASans-Regular-65" d="M 1786 -77
Q 1114 -77 723 339
Q 333 755 333 1510
L 333 1747
Q 333 2240 512 2595
Q 691 2950 1020 3142
Q 1350 3334 1786 3334
L 1837 3334
Q 2266 3334 2576 3155
Q 2886 2976 3059 2646
Q 3232 2317 3232 1875
L 3232 1485
L 838 1485
Q 845 915 1097 633
Q 1350 352 1786 352
L 1882 352
Q 2202 352 2403 467
Q 2605 582 2726 800
L 3117 563
Q 2950 269 2633 96
Q 2317 -77 1882 -77
L 1786 -77
z
M 845 1875
L 2726 1875
L 2726 1946
Q 2726 2419 2486 2662
Q 2246 2906 1837 2906
L 1786 2906
Q 1389 2906 1129 2643
Q 870 2381 845 1875
z
" transform="scale(0.015625)"/>
       <path id="NVIDIASans-Regular-72" d="M 512 0
L 512 3258
L 979 3258
L 979 2573
Q 1094 2893 1328 3088
Q 1562 3283 2010 3283
L 2310 3283
L 2310 2816
L 1984 2816
Q 1568 2816 1296 2531
Q 1024 2246 1024 1658
L 1024 0
L 512 0
z
" transform="scale(0.015625)"/>
       <path id="NVIDIASans-Regular-20" transform="scale(0.015625)"/>
       <path id="NVIDIASans-Regular-6f" d="M 1818 -77
Q 1395 -77 1059 112
Q 723 301 528 659
Q 333 1018 333 1517
L 333 1741
Q 333 2240 528 2598
Q 723 2957 1059 3145
Q 1395 3334 1818 3334
L 1882 3334
Q 2310 3334 2646 3145
Q 2982 2957 3177 2601
Q 3373 2246 3373 1747
L 3373 1510
Q 3373 1011 3177 656
Q 2982 301 2646 112
Q 2310 -77 1882 -77
L 1818 -77
z
M 1824 365
L 1875 365
Q 2291 365 2576 653
Q 2861 941 2861 1510
L 2861 1747
Q 2861 2317 2576 2605
Q 2291 2893 1875 2893
L 1824 2893
Q 1414 2893 1129 2605
Q 845 2317 845 1747
L 845 1510
Q 845 941 1129 653
Q 1414 365 1824 365
z
" transform="scale(0.015625)"/>
       <path id="NVIDIASans-Regular-66" d="M 896 0
L 896 2835
L 218 2835
L 218 3258
L 896 3258
L 896 3584
Q 896 4102 1165 4403
Q 1434 4704 2016 4704
L 2560 4704
L 2560 4269
L 2029 4269
Q 1709 4269 1558 4099
Q 1408 3930 1408 3603
L 1408 3258
L 2560 3258
L 2496 2835
L 1408 2835
L 1408 0
L 896 0
z
" transform="scale(0.015625)"/>
       <path id="NVIDIASans-Regular-55" d="M 3968 4480
L 3968 1754
Q 3968 890 3526 406
Q 3085 -77 2259 -77
L 2176 -77
Q 1350 -77 908 406
Q 467 890 467 1754
L 467 4480
L 998 4480
L 998 1741
Q 998 1075 1299 732
Q 1600 390 2182 390
L 2253 390
Q 2835 390 3136 732
Q 3437 1075 3437 1741
L 3437 4480
L 3968 4480
z
" transform="scale(0.015625)"/>
       <path id="NVIDIASans-Regular-70" d="M 512 -1280
L 512 3258
L 979 3258
L 979 2701
Q 1126 2989 1404 3161
Q 1683 3334 2080 3334
L 2125 3334
Q 2534 3334 2848 3152
Q 3162 2970 3344 2614
Q 3526 2259 3526 1747
L 3526 1510
Q 3526 998 3344 643
Q 3162 288 2848 105
Q 2534 -77 2125 -77
L 2080 -77
Q 1715 -77 1443 76
Q 1171 230 1024 493
L 1024 -1280
L 512 -1280
z
M 1984 365
L 2042 365
Q 2458 365 2736 646
Q 3014 928 3014 1517
L 3014 1747
Q 3014 2336 2736 2614
Q 2458 2893 2042 2893
L 1984 2893
Q 1722 2893 1501 2771
Q 1280 2650 1152 2394
Q 1024 2138 1024 1728
L 1024 1530
Q 1024 922 1305 643
Q 1587 365 1984 365
z
" transform="scale(0.015625)"/>
       <path id="NVIDIASans-Regular-64" d="M 1734 -77
Q 1331 -77 1014 105
Q 698 288 515 646
Q 333 1005 333 1517
L 333 1747
Q 333 2259 515 2614
Q 698 2970 1014 3152
Q 1331 3334 1734 3334
L 1773 3334
Q 2144 3334 2413 3177
Q 2682 3021 2835 2758
L 2835 4672
L 3347 4672
L 3347 0
L 2880 0
L 2880 563
Q 2733 275 2454 99
Q 2176 -77 1773 -77
L 1734 -77
z
M 1818 365
L 1875 365
Q 2144 365 2361 486
Q 2579 608 2707 864
Q 2835 1120 2835 1530
L 2835 1728
Q 2835 2138 2704 2394
Q 2573 2650 2355 2771
Q 2138 2893 1875 2893
L 1818 2893
Q 1402 2893 1123 2614
Q 845 2336 845 1747
L 845 1517
Q 845 928 1123 646
Q 1402 365 1818 365
z
" transform="scale(0.015625)"/>
       <path id="NVIDIASans-Regular-61" d="M 1357 -77
Q 832 -77 550 172
Q 269 422 269 890
Q 269 1274 509 1520
Q 749 1766 1216 1830
L 2496 2003
L 2496 2029
Q 2496 2906 1715 2906
L 1645 2906
Q 1030 2906 806 2432
L 397 2630
Q 544 2963 867 3148
Q 1190 3334 1645 3334
L 1741 3334
Q 2362 3334 2685 3008
Q 3008 2682 3008 2061
L 3008 0
L 2541 0
L 2541 582
Q 2394 275 2093 99
Q 1792 -77 1414 -77
L 1357 -77
z
M 2496 1613
L 1434 1459
Q 1062 1408 915 1286
Q 768 1165 768 915
Q 768 640 944 493
Q 1120 346 1453 346
L 1517 346
Q 1958 346 2227 627
Q 2496 909 2496 1376
L 2496 1613
z
" transform="scale(0.015625)"/>
       <path id="NVIDIASans-Regular-74" d="M 1862 -26
Q 1299 -26 1062 236
Q 826 499 826 954
L 826 2835
L 128 2835
L 128 3258
L 826 3258
L 826 4243
L 1338 4243
L 1338 3258
L 2464 3258
L 2394 2835
L 1338 2835
L 1338 986
Q 1338 678 1478 540
Q 1619 403 1914 403
L 2464 403
L 2464 -26
L 1862 -26
z
" transform="scale(0.015625)"/>
       <path id="NVIDIASans-Regular-73" d="M 1658 -77
Q 589 -77 262 672
L 672 877
Q 800 608 1040 480
Q 1280 352 1664 352
L 1734 352
Q 2502 352 2502 845
L 2502 877
Q 2502 1306 1997 1370
L 1267 1472
Q 838 1530 604 1747
Q 371 1965 371 2336
L 371 2406
Q 371 2822 704 3078
Q 1037 3334 1581 3334
L 1664 3334
Q 2112 3334 2445 3152
Q 2778 2970 2906 2643
L 2496 2458
Q 2291 2906 1664 2906
L 1587 2906
Q 1254 2906 1059 2771
Q 864 2637 864 2413
L 864 2374
Q 864 2176 982 2070
Q 1101 1965 1370 1926
L 2106 1824
Q 2528 1766 2761 1529
Q 2995 1293 2995 915
L 2995 845
Q 2995 390 2675 156
Q 2355 -77 1741 -77
L 1658 -77
z
" transform="scale(0.015625)"/>
      </defs>
      <use xlink:href="#NVIDIASans-Regular-4e"/>
      <use xlink:href="#NVIDIASans-Regular-75" x="73.599991"/>
      <use xlink:href="#NVIDIASans-Regular-6d" x="132.199982"/>
      <use xlink:href="#NVIDIASans-Regular-62" x="222.899963"/>
      <use xlink:href="#NVIDIASans-Regular-65" x="283.199951"/>
      <use xlink:href="#NVIDIASans-Regular-72" x="338.399948"/>
      <use xlink:href="#NVIDIASans-Regular-20" x="378.099945"/>
      <use xlink:href="#NVIDIASans-Regular-6f" x="403.899933"/>
      <use xlink:href="#NVIDIASans-Regular-66" x="461.699921"/>
      <use xlink:href="#NVIDIASans-Regular-20" x="503.799911"/>
      <use xlink:href="#NVIDIASans-Regular-55" x="529.599899"/>
      <use xlink:href="#NVIDIASans-Regular-70" x="598.899887"/>
      <use xlink:href="#NVIDIASans-Regular-64" x="659.199875"/>
      <use xlink:href="#NVIDIASans-Regular-61" x="719.499863"/>
      <use xlink:href="#NVIDIASans-Regular-74" x="772.29985"/>
      <use xlink:href="#NVIDIASans-Regular-65" x="814.799835"/>
      <use xlink:href="#NVIDIASans-Regular-73" x="869.999832"/>
     </g>
    </g>
   </g>
   <g id="matplotlib.axis_2">
    <g id="ytick_1">
     <g id="line2d_7">
      <defs>
       <path id="m2266086e39" d="M 0 0
L -3.5 0
" style="stroke: #000000; stroke-width: 0.8"/>
      </defs>
      <g>
       <use xlink:href="#m2266086e39" x="45" y="225.363127" style="stroke: #000000; stroke-width: 0.8"/>
      </g>
     </g>
     <g id="text_8">
      <!-- 7 -->
      <g transform="translate(32 229.013127) scale(0.1 -0.1)">
       <defs>
        <path id="NVIDIASans-Regular-37" d="M 1306 0
L 1306 506
Q 1306 902 1421 1273
Q 1536 1645 1805 2131
L 2784 3942
L 467 3942
L 467 4403
L 3392 4403
L 3392 4000
L 2259 1920
Q 2029 1498 1929 1165
Q 1830 832 1830 474
L 1830 0
L 1306 0
z
" transform="scale(0.015625)"/>
       </defs>
       <use xlink:href="#NVIDIASans-Regular-37"/>
      </g>
     </g>
    </g>
    <g id="ytick_2">
     <g id="line2d_8">
      <g>
       <use xlink:href="#m2266086e39" x="45" y="189.582886" style="stroke: #000000; stroke-width: 0.8"/>
      </g>
     </g>
     <g id="text_9">
      <!-- 8 -->
      <g transform="translate(32 193.232886) scale(0.1 -0.1)">
       <defs>
        <path id="NVIDIASans-Regular-38" d="M 1869 -77
Q 1126 -77 729 259
Q 333 595 333 1158
L 333 1280
Q 333 1619 518 1900
Q 704 2182 1018 2310
Q 749 2432 598 2685
Q 448 2938 448 3232
L 448 3334
Q 448 3853 832 4166
Q 1216 4480 1875 4480
L 1965 4480
Q 2624 4480 3008 4166
Q 3392 3853 3392 3334
L 3392 3232
Q 3392 2938 3241 2685
Q 3091 2432 2822 2310
Q 3136 2182 3321 1900
Q 3507 1619 3507 1280
L 3507 1158
Q 3507 595 3110 259
Q 2714 -77 1971 -77
L 1869 -77
z
M 1882 371
L 1958 371
Q 2470 371 2726 601
Q 2982 832 2982 1171
L 2982 1280
Q 2982 1619 2729 1849
Q 2477 2080 1965 2080
L 1875 2080
Q 1370 2080 1114 1849
Q 858 1619 858 1280
L 858 1171
Q 858 832 1114 601
Q 1370 371 1882 371
z
M 1894 2509
L 1946 2509
Q 2400 2509 2637 2707
Q 2874 2906 2874 3226
L 2874 3315
Q 2874 3635 2634 3833
Q 2394 4032 1946 4032
L 1894 4032
Q 1446 4032 1206 3833
Q 966 3635 966 3315
L 966 3226
Q 966 2906 1206 2707
Q 1446 2509 1894 2509
z
" transform="scale(0.015625)"/>
       </defs>
       <use xlink:href="#NVIDIASans-Regular-38"/>
      </g>
     </g>
    </g>
    <g id="ytick_3">
     <g id="line2d_9">
      <g>
       <use xlink:href="#m2266086e39" x="45" y="153.802645" style="stroke: #000000; stroke-width: 0.8"/>
      </g>
     </g>
     <g id="text_10">
      <!-- 9 -->
      <g transform="translate(32 157.452645) scale(0.1 -0.1)">
       <defs>
        <path id="NVIDIASans-Regular-39" d="M 1792 -77
Q 794 -77 493 685
L 947 858
Q 1056 602 1264 486
Q 1472 371 1805 371
L 1869 371
Q 2976 371 2976 1965
L 2976 2125
Q 2810 1843 2506 1689
Q 2202 1536 1811 1536
L 1747 1536
Q 1331 1536 1004 1715
Q 678 1894 496 2211
Q 314 2528 314 2938
L 314 3053
Q 314 3469 509 3792
Q 704 4115 1049 4297
Q 1395 4480 1837 4480
L 1907 4480
Q 2643 4480 3059 4022
Q 3475 3565 3475 2752
L 3475 1971
Q 3475 979 3059 451
Q 2643 -77 1862 -77
L 1792 -77
z
M 1869 1971
L 1926 1971
Q 2387 1971 2672 2246
Q 2957 2522 2957 2957
L 2957 3059
Q 2957 3494 2672 3766
Q 2387 4038 1926 4038
L 1869 4038
Q 1408 4038 1120 3766
Q 832 3494 832 3059
L 832 2957
Q 832 2515 1120 2243
Q 1408 1971 1869 1971
z
" transform="scale(0.015625)"/>
       </defs>
       <use xlink:href="#NVIDIASans-Regular-39"/>
      </g>
     </g>
    </g>
    <g id="ytick_4">
     <g id="line2d_10">
      <g>
       <use xlink:href="#m2266086e39" x="45" y="118.022404" style="stroke: #000000; stroke-width: 0.8"/>
      </g>
     </g>
     <g id="text_11">
      <!-- 10 -->
      <g transform="translate(26 121.672404) scale(0.1 -0.1)">
       <use xlink:href="#NVIDIASans-Regular-31"/>
       <use xlink:href="#NVIDIASans-Regular-30" x="59.999985"/>
      </g>
     </g>
    </g>
    <g id="ytick_5">
     <g id="line2d_11">
      <g>
       <use xlink:href="#m2266086e39" x="45" y="82.242163" style="stroke: #000000; stroke-width: 0.8"/>
      </g>
     </g>
     <g id="text_12">
      <!-- 11 -->
      <g transform="translate(26 85.892163) scale(0.1 -0.1)">
       <use xlink:href="#NVIDIASans-Regular-31"/>
       <use xlink:href="#NVIDIASans-Regular-31" x="59.999985"/>
      </g>
     </g>
    </g>
    <g id="ytick_6">
     <g id="line2d_12">
      <g>
       <use xlink:href="#m2266086e39" x="45" y="46.461922" style="stroke: #000000; stroke-width: 0.8"/>
      </g>
     </g>
     <g id="text_13">
      <!-- 12 -->
      <g transform="translate(26 50.111922) scale(0.1 -0.1)">
       <use xlink:href="#NVIDIASans-Regular-31"/>
       <use xlink:href="#NVIDIASans-Regular-32" x="59.999985"/>
      </g>
     </g>
    </g>
    <g id="text_14">
     <!-- Validation Perplexity -->
     <g transform="translate(20 192.85875) rotate(-90) scale(0.1 -0.1)">
      <defs>
       <path id="NVIDIASans-Regular-56" d="M 1818 0
L 96 4480
L 672 4480
L 2061 691
L 3456 4480
L 4000 4480
L 2278 0
L 1818 0
z
" transform="scale(0.015625)"/>
       <path id="NVIDIASans-Regular-6c" d="M 512 0
L 512 4672
L 1024 4672
L 1024 0
L 512 0
z
" transform="scale(0.015625)"/>
       <path id="NVIDIASans-Regular-69" d="M 512 0
L 512 3258
L 1024 3258
L 1024 0
L 512 0
z
M 499 3942
L 499 4525
L 1037 4525
L 1037 3942
L 499 3942
z
" transform="scale(0.015625)"/>
       <path id="NVIDIASans-Regular-6e" d="M 512 0
L 512 3258
L 979 3258
L 979 2675
Q 1114 2970 1389 3152
Q 1664 3334 2074 3334
L 2131 3334
Q 2688 3334 3024 2995
Q 3360 2656 3360 2003
L 3360 0
L 2848 0
L 2848 1920
Q 2848 2400 2637 2646
Q 2426 2893 2029 2893
L 1984 2893
Q 1728 2893 1510 2768
Q 1293 2643 1158 2396
Q 1024 2150 1024 1779
L 1024 0
L 512 0
z
" transform="scale(0.015625)"/>
       <path id="NVIDIASans-Regular-50" d="M 608 0
L 608 4480
L 2182 4480
Q 2944 4480 3363 4137
Q 3782 3795 3782 3168
L 3782 3014
Q 3782 2387 3356 2041
Q 2931 1696 2182 1696
L 1139 1696
L 1139 0
L 608 0
z
M 1139 2150
L 2176 2150
Q 2688 2150 2969 2361
Q 3251 2573 3251 3002
L 3251 3174
Q 3251 3603 2969 3814
Q 2688 4026 2176 4026
L 1139 4026
L 1139 2150
z
" transform="scale(0.015625)"/>
       <path id="NVIDIASans-Regular-78" d="M 2560 0
L 1658 1312
L 749 0
L 173 0
L 1357 1651
L 218 3258
L 813 3258
L 1677 1997
L 2534 3258
L 3110 3258
L 1971 1651
L 3155 0
L 2560 0
z
" transform="scale(0.015625)"/>
       <path id="NVIDIASans-Regular-79" d="M 397 -1280
L 397 -851
L 576 -851
Q 877 -851 1033 -716
Q 1190 -582 1331 -198
L 1402 -6
L 115 3258
L 659 3258
L 1670 538
L 2637 3258
L 3155 3258
L 1837 -218
Q 1683 -634 1523 -867
Q 1363 -1101 1152 -1190
Q 941 -1280 627 -1280
L 397 -1280
z
" transform="scale(0.015625)"/>
      </defs>
      <use xlink:href="#NVIDIASans-Regular-56"/>
      <use xlink:href="#NVIDIASans-Regular-61" x="59.499985"/>
      <use xlink:href="#NVIDIASans-Regular-6c" x="113.799973"/>
      <use xlink:href="#NVIDIASans-Regular-69" x="137.799957"/>
      <use xlink:href="#NVIDIASans-Regular-64" x="161.799942"/>
      <use xlink:href="#NVIDIASans-Regular-61" x="222.09993"/>
      <use xlink:href="#NVIDIASans-Regular-74" x="274.899918"/>
      <use xlink:href="#NVIDIASans-Regular-69" x="317.399902"/>
      <use xlink:href="#NVIDIASans-Regular-6f" x="341.399887"/>
      <use xlink:href="#NVIDIASans-Regular-6e" x="399.199875"/>
      <use xlink:href="#NVIDIASans-Regular-20" x="458.999863"/>
      <use xlink:href="#NVIDIASans-Regular-50" x="484.79985"/>
      <use xlink:href="#NVIDIASans-Regular-65" x="544.399841"/>
      <use xlink:href="#NVIDIASans-Regular-72" x="599.599838"/>
      <use xlink:href="#NVIDIASans-Regular-70" x="639.299835"/>
      <use xlink:href="#NVIDIASans-Regular-6c" x="699.599823"/>
      <use xlink:href="#NVIDIASans-Regular-65" x="723.599808"/>
      <use xlink:href="#NVIDIASans-Regular-78" x="778.799805"/>
      <use xlink:href="#NVIDIASans-Regular-69" x="830.799789"/>
      <use xlink:href="#NVIDIASans-Regular-74" x="854.799774"/>
      <use xlink:href="#NVIDIASans-Regular-79" x="897.299759"/>
     </g>
    </g>
   </g>
   <g id="line2d_13">
    <path d="M 61.505482 57.649212
L 66.6037 70.098129
L 71.701919 76.977301
L 76.800137 80.291602
L 81.898355 84.776934
L 86.996574 87.382471
L 92.094792 89.27371
L 97.193011 91.008147
L 102.291229 92.39086
L 107.389447 93.504263
L 117.585884 95.627934
L 122.684102 96.440612
L 127.782321 97.165798
L 132.880539 97.878964
L 137.978757 98.542936
L 143.076976 99.010571
L 153.273413 100.190559
L 158.371631 100.608563
L 163.469849 101.056482
L 173.666286 101.934049
L 178.764504 102.384304
L 183.862723 102.788216
L 194.059159 103.407072
L 199.157378 103.780075
L 204.255596 104.101925
L 209.353815 104.476357
L 214.452033 104.727715
L 219.550251 104.987568
L 229.746688 105.590241
L 234.844906 105.807941
L 239.943125 106.163469
L 245.041343 106.305162
L 250.139561 106.630637
L 255.23778 106.844558
L 260.335998 107.119104
L 265.434217 107.341616
L 275.630653 107.816683
L 280.728872 108.049734
L 285.82709 108.267916
L 296.023527 108.378229
L 301.121745 108.451548
L 306.219963 108.502696
L 311.318182 108.542979
" clip-path="url(#p906e0dab74)" style="fill: none; stroke: #bff230; stroke-width: 1.5; stroke-linecap: square"/>
   </g>
   <g id="line2d_14">
    <path d="M 61.505482 109.263122
L 66.6037 135.510094
L 71.701919 149.074943
L 76.799627 157.721958
L 81.897846 163.870013
L 86.996064 169.00927
L 92.094282 172.962242
L 97.191991 176.418323
L 102.290209 179.314411
L 107.388428 181.957388
L 112.486136 184.288701
L 117.584354 186.319628
L 122.682573 188.145108
L 127.780791 189.887029
L 132.8785 191.427661
L 137.976718 192.911633
L 143.074937 194.358605
L 148.173155 195.56875
L 153.270863 196.966498
L 158.369082 198.094985
L 163.4673 199.206639
L 168.565519 200.406775
L 173.663227 201.40942
L 178.761445 202.355607
L 183.859664 203.312567
L 188.957882 204.247336
L 194.055591 205.221032
L 199.153809 206.138067
L 204.252027 206.922905
L 209.350246 207.751418
L 214.447954 208.64045
L 219.546173 209.436552
L 224.644391 210.252634
L 229.742609 211.101121
L 234.840318 211.921668
L 239.938536 212.618585
L 245.036755 213.429455
L 250.134973 214.201932
L 255.232682 214.833658
L 260.3309 215.663663
L 265.429118 216.426099
L 270.527337 217.046162
L 275.625045 217.798241
L 280.723264 218.479302
L 285.821482 219.136351
L 290.9197 219.494117
L 296.017409 219.758665
L 301.115627 219.963196
L 306.213846 220.197916
L 311.312064 220.396432
" clip-path="url(#p906e0dab74)" style="fill: none; stroke: #76b900; stroke-width: 1.5; stroke-linecap: square"/>
   </g>
   <g id="line2d_15">
    <path d="M 57.681818 44.64
L 58.956373 70.39963
L 60.230927 84.883019
L 61.505482 97.048506
L 62.780037 108.138548
L 64.054591 117.701239
L 65.329146 125.188448
L 69.1523 144.901018
L 70.426854 150.003629
L 72.975963 157.980473
L 74.250518 161.411328
L 76.799627 167.179682
L 78.073672 169.39139
L 79.348227 171.894066
L 80.622781 174.00522
L 84.446445 179.444671
L 86.995554 182.805611
L 92.093263 188.07514
L 95.916926 191.300361
L 97.191481 192.474343
L 101.014635 195.364947
L 104.838299 197.868567
L 106.112853 198.775248
L 107.387408 199.504643
L 108.661453 200.062214
L 109.936007 200.943586
L 111.210562 201.46653
L 112.485116 202.267508
L 117.583335 204.902195
L 118.85738 205.145149
L 120.131934 206.00648
L 123.955598 207.7185
L 126.504707 208.684082
L 127.779262 209.272895
L 129.053307 209.71351
L 130.327861 210.315374
L 136.700634 212.580993
L 137.975189 213.115748
L 139.249233 213.511708
L 140.523788 213.762594
L 141.798343 214.421714
L 144.347452 215.102705
L 145.622006 215.580316
L 146.896561 215.769522
L 148.171116 216.33548
L 149.44516 216.614474
L 153.268824 217.848988
L 155.817933 218.567639
L 157.092488 218.829253
L 159.641087 219.617843
L 160.915642 219.82627
L 166.01386 221.323726
L 167.288415 221.576627
L 169.837014 222.271081
L 181.307496 225.018409
L 182.58205 225.192955
L 185.131159 225.895318
L 187.680269 226.397496
L 191.503423 227.286769
L 192.777977 227.433355
L 194.052532 227.81152
L 196.601641 228.325692
L 201.699349 229.340908
L 202.973904 229.763223
L 205.523013 230.192457
L 208.072122 230.731759
L 210.620722 231.223257
L 211.895276 231.512894
L 213.169831 231.680534
L 215.71894 232.24796
L 216.993495 232.388167
L 218.268049 232.755687
L 219.542604 232.923748
L 222.091203 233.462543
L 232.28713 235.375194
L 236.110794 236.105784
L 237.385349 236.196469
L 238.659903 236.558155
L 239.934458 236.699273
L 242.483057 237.273804
L 245.032166 237.686132
L 247.581275 238.117159
L 248.85583 238.290008
L 250.130385 238.660917
L 275.619947 242.885735
L 276.894502 243.040715
L 279.443611 243.507197
L 281.99221 243.92473
L 288.364983 244.785035
L 311.305946 246.24
L 311.305946 246.24
" clip-path="url(#p906e0dab74)" style="fill: none; stroke: #3f8500; stroke-width: 1.5; stroke-linecap: square"/>
   </g>
   <g id="patch_3">
    <path d="M 45 256.32
L 45 34.56
" style="fill: none; stroke: #000000; stroke-width: 0.8; stroke-linejoin: miter; stroke-linecap: square"/>
   </g>
   <g id="patch_4">
    <path d="M 45 256.32
L 324 256.32
" style="fill: none; stroke: #000000; stroke-width: 0.8; stroke-linejoin: miter; stroke-linecap: square"/>
   </g>
   <g id="legend_1">
    <g id="patch_5">
     <path d="M 257.85 99.76
L 317 99.76
Q 319 99.76 319 97.76
L 319 41.56
Q 319 39.56 317 39.56
L 257.85 39.56
Q 255.85 39.56 255.85 41.56
L 255.85 97.76
Q 255.85 99.76 257.85 99.76
z
" style="fill: #ffffff; opacity: 0.8; stroke: #cccccc; stroke-linejoin: miter"/>
    </g>
    <g id="text_15">
     <!-- Model Size -->
     <g transform="translate(262.304688 50.86) scale(0.1 -0.1)">
      <defs>
       <path id="NVIDIASans-Regular-4d" d="M 608 0
L 608 4480
L 1210 4480
L 2938 723
L 4659 4480
L 5248 4480
L 5248 0
L 4736 0
L 4736 3514
L 3117 0
L 2739 0
L 1120 3514
L 1120 0
L 608 0
z
" transform="scale(0.015625)"/>
       <path id="NVIDIASans-Regular-53" d="M 1997 -77
Q 691 -77 288 890
L 742 1126
Q 896 755 1200 569
Q 1504 384 1990 384
L 2061 384
Q 2592 384 2877 585
Q 3162 787 3162 1152
L 3162 1222
Q 3162 1536 2982 1728
Q 2803 1920 2400 1990
L 1581 2125
Q 422 2317 422 3290
L 422 3373
Q 422 3725 617 3993
Q 813 4262 1158 4412
Q 1504 4563 1958 4563
L 2048 4563
Q 2624 4563 3030 4326
Q 3437 4090 3616 3648
L 3149 3450
Q 2906 4096 2042 4096
L 1965 4096
Q 1491 4096 1219 3901
Q 947 3706 947 3373
L 947 3296
Q 947 3002 1126 2838
Q 1306 2675 1696 2605
L 2515 2470
Q 3104 2374 3398 2057
Q 3693 1741 3693 1229
L 3693 1152
Q 3693 582 3261 252
Q 2829 -77 2080 -77
L 1997 -77
z
" transform="scale(0.015625)"/>
       <path id="NVIDIASans-Regular-7a" d="M 250 0
L 250 390
L 2067 2829
L 282 2829
L 282 3258
L 2688 3258
L 2688 2867
L 870 422
L 2720 422
L 2720 0
L 250 0
z
" transform="scale(0.015625)"/>
      </defs>
      <use xlink:href="#NVIDIASans-Regular-4d"/>
      <use xlink:href="#NVIDIASans-Regular-6f" x="91.499985"/>
      <use xlink:href="#NVIDIASans-Regular-64" x="149.299973"/>
      <use xlink:href="#NVIDIASans-Regular-65" x="209.59996"/>
      <use xlink:href="#NVIDIASans-Regular-6c" x="264.799957"/>
      <use xlink:href="#NVIDIASans-Regular-20" x="288.799942"/>
      <use xlink:href="#NVIDIASans-Regular-53" x="314.59993"/>
      <use xlink:href="#NVIDIASans-Regular-69" x="376.799927"/>
      <use xlink:href="#NVIDIASans-Regular-7a" x="400.799911"/>
      <use xlink:href="#NVIDIASans-Regular-65" x="447.199905"/>
     </g>
    </g>
    <g id="line2d_16">
     <path d="M 259.85 61.66
L 269.85 61.66
L 279.85 61.66
" style="fill: none; stroke: #bff230; stroke-width: 1.5; stroke-linecap: square"/>
    </g>
    <g id="text_16">
     <!-- 8M -->
     <g transform="translate(287.85 65.16) scale(0.1 -0.1)">
      <use xlink:href="#NVIDIASans-Regular-38"/>
      <use xlink:href="#NVIDIASans-Regular-4d" x="59.999985"/>
     </g>
    </g>
    <g id="line2d_17">
     <path d="M 259.85 75.96
L 269.85 75.96
L 279.85 75.96
" style="fill: none; stroke: #76b900; stroke-width: 1.5; stroke-linecap: square"/>
    </g>
    <g id="text_17">
     <!-- 650M -->
     <g transform="translate(287.85 79.46) scale(0.1 -0.1)">
      <defs>
       <path id="NVIDIASans-Regular-36" d="M 1939 -77
Q 1203 -77 784 384
Q 365 845 365 1658
L 365 2432
Q 365 3430 781 3955
Q 1197 4480 1984 4480
L 2054 4480
Q 3046 4480 3354 3718
L 2893 3546
Q 2784 3802 2579 3917
Q 2374 4032 2035 4032
L 1978 4032
Q 864 4032 864 2438
L 864 2285
Q 1030 2566 1334 2720
Q 1638 2874 2029 2874
L 2093 2874
Q 2515 2874 2838 2694
Q 3162 2515 3344 2198
Q 3526 1882 3526 1472
L 3526 1350
Q 3526 941 3331 617
Q 3136 294 2793 108
Q 2451 -77 2003 -77
L 1939 -77
z
M 1914 365
L 1978 365
Q 2432 365 2720 637
Q 3008 909 3008 1344
L 3008 1453
Q 3008 1888 2720 2160
Q 2432 2432 1978 2432
L 1914 2432
Q 1453 2432 1168 2160
Q 883 1888 883 1453
L 883 1344
Q 883 915 1168 640
Q 1453 365 1914 365
z
" transform="scale(0.015625)"/>
      </defs>
      <use xlink:href="#NVIDIASans-Regular-36"/>
      <use xlink:href="#NVIDIASans-Regular-35" x="59.999985"/>
      <use xlink:href="#NVIDIASans-Regular-30" x="119.999969"/>
      <use xlink:href="#NVIDIASans-Regular-4d" x="179.999954"/>
     </g>
    </g>
    <g id="line2d_18">
     <path d="M 259.85 90.26
L 269.85 90.26
L 279.85 90.26
" style="fill: none; stroke: #3f8500; stroke-width: 1.5; stroke-linecap: square"/>
    </g>
    <g id="text_18">
     <!-- 3B -->
     <g transform="translate(287.85 93.76) scale(0.1 -0.1)">
      <defs>
       <path id="NVIDIASans-Regular-42" d="M 608 0
L 608 4480
L 2253 4480
Q 2989 4480 3376 4182
Q 3763 3885 3763 3347
L 3763 3200
Q 3763 2592 3194 2330
Q 3571 2208 3763 1949
Q 3955 1690 3955 1318
L 3955 1165
Q 3955 621 3568 310
Q 3181 0 2445 0
L 608 0
z
M 1139 454
L 2438 454
Q 2938 454 3181 636
Q 3424 819 3424 1158
L 3424 1325
Q 3424 1677 3181 1865
Q 2938 2054 2426 2054
L 1139 2054
L 1139 454
z
M 1139 2496
L 2234 2496
Q 2726 2496 2979 2675
Q 3232 2854 3232 3187
L 3232 3354
Q 3232 4026 2246 4026
L 1139 4026
L 1139 2496
z
" transform="scale(0.015625)"/>
      </defs>
      <use xlink:href="#NVIDIASans-Regular-33"/>
      <use xlink:href="#NVIDIASans-Regular-42" x="59.999985"/>
     </g>
    </g>
   </g>
  </g>
 </g>
 <defs>
  <clipPath id="p906e0dab74">
   <rect x="45" y="34.56" width="279" height="221.76"/>
  </clipPath>
 </defs>
</svg>
